<svg xmlns="http://www.w3.org/2000/svg"  viewBox="0 0 48 48" width="96px" height="96px" baseProfile="basic"><path d="M46,28h-0.682l-2.375-6.334L37.949,6.684C37.812,6.275,37.431,6,37,6s-0.813,0.275-0.949,0.684L31.279,21H16.721	L11.949,6.684C11.812,6.275,11.431,6,11,6s-0.813,0.275-0.949,0.684L5.063,21.648L2.682,28H2v2h0.004	c0,0.316,0.146,0.622,0.415,0.813l21,15C23.593,45.938,23.796,46,24,46s0.407-0.063,0.581-0.187l21-15	c0.269-0.191,0.415-0.497,0.415-0.813H46V28z"/><polygon fill="#fff" points="42,20 37,5 32,20 16,20 11,5 6,20 3,28 24,43 45,28"/><path d="M24,44c-0.426,0-0.805-0.27-0.944-0.672l-8-23c-0.106-0.306-0.058-0.644,0.129-0.907C15.373,19.156,15.676,19,16,19h16	c0.324,0,0.627,0.156,0.815,0.421c0.188,0.264,0.236,0.602,0.129,0.907l-8,23C24.805,43.73,24.426,44,24,44z M17.407,21L24,39.956	L30.593,21H17.407z"/><path d="M24,44c-0.163,0-0.327-0.04-0.479-0.122c-0.429-0.234-0.626-0.744-0.465-1.206l8-23C31.195,19.27,31.574,19,32,19h10	c0.382,0,0.731,0.218,0.899,0.562c0.167,0.345,0.125,0.754-0.111,1.055l-18,23C24.592,43.866,24.299,44,24,44z M32.711,21	l-5.789,16.645L39.948,21H32.711z"/><path d="M42,21H32c-0.321,0-0.623-0.154-0.811-0.415s-0.239-0.597-0.138-0.901l5-15C36.188,4.275,36.569,4,37,4	s0.813,0.275,0.949,0.684l5,15c0.102,0.305,0.05,0.641-0.138,0.901S42.321,21,42,21z M33.387,19h7.226L37,8.162L33.387,19z"/><path d="M24,44c-0.265,0-0.528-0.104-0.723-0.309c-0.344-0.359-0.371-0.916-0.065-1.308l18-23c0.223-0.284,0.579-0.428,0.939-0.372	c0.357,0.055,0.658,0.299,0.785,0.637l3,8c0.159,0.425,0.013,0.902-0.355,1.165l-21,15C24.406,43.938,24.203,44,24,44z M41.689,22.02L29.061,38.156l14.733-10.523L41.689,22.02z"/><path d="M24,44c-0.299,0-0.593-0.134-0.788-0.384l-18-23c-0.236-0.301-0.279-0.71-0.111-1.055C5.269,19.218,5.618,19,6,19h10	c0.426,0,0.805,0.27,0.944,0.672l8,23c0.161,0.462-0.036,0.972-0.465,1.206C24.328,43.96,24.163,44,24,44z M8.052,21l13.026,16.645	L15.289,21H8.052z"/><path d="M16,21H6c-0.321,0-0.623-0.154-0.811-0.415s-0.239-0.597-0.138-0.901l5-15C10.188,4.275,10.569,4,11,4	s0.813,0.275,0.949,0.684l5,15c0.102,0.305,0.05,0.641-0.138,0.901S16.321,21,16,21z M7.387,19h7.226L11,8.162L7.387,19z"/><path d="M24,44c-0.202,0-0.406-0.062-0.581-0.187l-21-15c-0.369-0.263-0.514-0.74-0.355-1.165l3-8	c0.127-0.338,0.427-0.582,0.785-0.637c0.359-0.053,0.717,0.088,0.939,0.372l18,23c0.306,0.392,0.279,0.948-0.065,1.308	C24.527,43.896,24.265,44,24,44z M4.206,27.633l14.733,10.523L6.311,22.02L4.206,27.633z"/></svg>